<svg xmlns="http://www.w3.org/2000/svg" version="1.1" xmlns:xlink="http://www.w3.org/1999/xlink" width="16" height="16"><svg width="16" height="16" viewBox="0 0 16 16" fill="none" xmlns="http://www.w3.org/2000/svg">
<g clip-path="url(#clip0_3852_4795)">
<path d="M2.29983 6.75095C2.29983 7.11613 2.52554 7.1802 2.62706 7.1802C2.81827 7.1802 2.9331 7.02299 2.9331 6.87859C2.9331 6.71301 2.80152 6.66225 2.31708 6.45822C2.0958 6.36902 1.54779 6.14824 1.54779 5.55686C1.54779 4.92359 2.12143 4.58798 2.64825 4.58798C3.08144 4.58798 3.69352 4.80876 3.70633 5.56524H2.91142C2.89466 5.45879 2.86903 5.2592 2.62263 5.2592C2.48267 5.2592 2.34616 5.35678 2.34616 5.50561C2.34616 5.65444 2.43092 5.68844 2.99667 5.94323C3.58312 6.20688 3.73195 6.47892 3.73195 6.84409C3.73195 7.34578 3.46879 7.85141 2.63544 7.85141C1.80209 7.85141 1.47978 7.36747 1.50098 6.75095H2.29983Z" fill="#FF640A"></path>
<path d="M3.95997 5.43367H4.61886V5.68451C4.69968 5.56968 4.84851 5.35284 5.26889 5.35284C6.0638 5.35284 6.14462 5.99893 6.14462 6.31778V7.79278H5.43891V6.50505C5.43891 6.24583 5.38371 6.01667 5.0688 6.01667C4.72038 6.01667 4.66519 6.26702 4.66519 6.50948V7.79327H3.95947V5.43367H3.95997Z" fill="#FF640A"></path>
<path d="M7.02017 6.62382C7.02017 6.84066 7.18181 7.2147 7.60662 7.2147C7.85746 7.2147 8.01023 7.09594 8.09993 6.95105C8.15906 6.85741 8.18913 6.7554 8.1975 6.64944C8.20637 6.543 8.18469 6.43704 8.13787 6.33946C8.06149 6.17782 7.89984 6.01223 7.60218 6.01223C7.19857 6.01223 7.01967 6.35228 7.01967 6.61987V6.62382H7.02017ZM8.90322 7.79228H8.1975V7.5375C8.06986 7.76715 7.77664 7.87311 7.50017 7.87311C6.75207 7.87311 6.31445 7.28666 6.31445 6.611C6.31445 5.83728 6.87134 5.35284 7.50017 5.35284C7.88703 5.35284 8.10387 5.53962 8.1975 5.68451V5.43367H8.90322V7.79228Z" fill="#FF640A"></path>
<path d="M8.96982 10.1538C8.78699 10.8975 8.14091 11.3908 7.38 11.3908C6.39387 11.3908 5.72266 10.6043 5.72266 9.75466C5.72266 8.95137 6.34311 8.12689 7.37162 8.12689C8.40013 8.12689 8.88457 8.8878 8.96982 9.38062H8.12809C8.03889 9.14702 7.80086 8.83211 7.36768 8.83211C6.82804 8.83211 6.52595 9.30374 6.52595 9.75023C6.52595 10.2263 6.84923 10.6851 7.37211 10.6851C7.89499 10.6851 8.07733 10.2642 8.12858 10.1538H8.97032H8.96982Z" fill="#3BC4FF"></path>
<path d="M9.79751 10.1622C9.79751 10.3791 9.95866 10.7531 10.384 10.7531C10.6348 10.7531 10.7876 10.6344 10.8768 10.4895C10.9364 10.3958 10.966 10.2938 10.9744 10.1879C10.9827 10.0814 10.9615 9.97546 10.9147 9.87788C10.8383 9.71624 10.6767 9.55065 10.379 9.55065C9.97542 9.55065 9.79702 9.89069 9.79702 10.1583V10.1622H9.79751ZM11.6801 11.3312H10.9744V11.0764C10.8467 11.3061 10.5535 11.412 10.2775 11.412C9.52942 11.412 9.0918 10.8256 9.0918 10.1499C9.0918 9.37619 9.64819 8.89175 10.2775 8.89175C10.6644 8.89175 10.8812 9.07853 10.9744 9.22342V8.97258H11.6801V11.3312Z" fill="#3BC4FF"></path>
<path d="M11.938 8.97258H12.6008V9.23574C12.6688 9.1081 12.792 8.89175 13.2001 8.89175V9.60141H13.1745C12.8132 9.60141 12.6432 9.73299 12.6432 10.0647V11.3312H11.9375V8.97258H11.938Z" fill="#3BC4FF"></path>
<path d="M10.5887 5.35284C10.2274 5.35284 9.99384 5.51449 9.84057 5.69289V5.43367H9.17773V8.57882H9.88345V7.58037C9.96821 7.66957 10.1683 7.8736 10.5931 7.8736C11.2643 7.8736 11.7404 7.31672 11.7404 6.63663C11.7404 6.08813 11.426 5.35284 10.5887 5.35284ZM10.5039 7.19696C10.1826 7.19696 9.92189 6.93626 9.92189 6.61495C9.92189 6.29363 10.1826 6.03293 10.5039 6.03293C10.8252 6.03293 11.0859 6.29363 11.0859 6.61495C11.0859 6.93626 10.8252 7.19696 10.5039 7.19696Z" fill="#FF640A"></path>
<path d="M13.3484 5.35284C12.9872 5.35284 12.7536 5.51449 12.6008 5.69289V5.43367H11.9375V8.57882H12.6432V7.58037C12.728 7.66957 12.9276 7.8736 13.3529 7.8736C14.0246 7.8736 14.5001 7.31672 14.5001 6.63663C14.5001 6.08813 14.1857 5.35284 13.3484 5.35284ZM13.2543 7.19696C12.9325 7.19696 12.6718 6.93626 12.6718 6.61495C12.6718 6.29363 12.9325 6.03293 13.2543 6.03293C13.5761 6.03293 13.8363 6.29363 13.8363 6.61495C13.8363 6.93626 13.5756 7.19696 13.2543 7.19696Z" fill="#FF640A"></path>
</g>
<defs>
<clipPath id="SvgjsClipPath1213">
<rect width="13" height="6.82403" fill="white" transform="translate(1.5 4.58798)"></rect>
</clipPath>
</defs>
</svg><style>@media (prefers-color-scheme: light) { :root { filter: none; } }
@media (prefers-color-scheme: dark) { :root { filter: none; } }
</style></svg>